<?xml version="1.0" encoding="UTF-8"?>
<svg width="1205px" height="1014px" viewBox="0 0 1205 1014" version="1.1" xmlns="http://www.w3.org/2000/svg" xmlns:xlink="http://www.w3.org/1999/xlink">
    <!-- Generator: Sketch 40.3 (33839) - http://www.bohemiancoding.com/sketch -->
    <title>tables</title>
    <desc>Created with Sketch.</desc>
    <defs></defs>
    <g id="Page-1" stroke="none" stroke-width="1" fill="none" fill-rule="evenodd">
        <g id="tables" transform="translate(0.000000, 1.000000)">
            <g id="BarTisch" transform="translate(843.000000, 660.000000)" stroke="#000000" fill="#000000">
                <rect id="Rectangle-path" x="0.68618581" y="60.9444366" width="67.132694" height="291.143556"></rect>
                <rect id="Rectangle-path" x="0.68618581" y="0.084486553" width="348.225109" height="60.960379"></rect>
            </g>
            <g id="Bar-2" transform="translate(759.083922, 665.000000)" stroke="#000000" fill="#26AA8C">
                <rect id="1" x="0.25559148" y="278.061502" width="50" height="50"></rect>
                <rect id="Rectangle-path" x="0.25559148" y="185.566429" width="50" height="50"></rect>
                <rect id="Rectangle-path" x="0.25559148" y="92.9709277" width="50" height="50"></rect>
                <rect id="Rectangle-path" x="0.25559148" y="0.475855123" width="50" height="50"></rect>
            </g>
            <g id="Bar-1" transform="translate(900.970848, 587.000000)" stroke="#000000" fill="#26AA8C">
                <rect id="Rectangle-path" x="0.991440261" y="0.888932821" width="50" height="50"></rect>
                <rect id="Rectangle-path" x="90.9821988" y="0.888932821" width="50" height="50"></rect>
                <rect id="Rectangle-path" x="183.135207" y="0.888932821" width="50" height="50"></rect>
            </g>
            <g id="Tisch-8" transform="translate(401.000000, 740.000000)">
                <rect stroke="#000000" fill="#243648" x="67" y="60" width="110" height="80" rx="6"></rect>
                <rect id="Rectangle-path" stroke="#000000" fill="#26AA8C" x="0.888142982" y="76.946697" width="50" height="50" rx="25"></rect>
                <rect id="Rectangle-path-Copy" stroke="#000000" fill="#26AA8C" x="94" y="0.0264911037" width="50" height="50" rx="25"></rect>
                <rect id="Rectangle-path" stroke="#000000" fill="#26AA8C" x="187.825894" y="76.7301876" width="50" height="50" rx="25"></rect>
                <rect id="Rectangle-path-Copy-2" stroke="#000000" fill="#26AA8C" x="98" y="155.127614" width="50" height="50" rx="25"></rect>
                <text id="8" fill="#A6B2C5" opacity="0.800000012" font-family="Helvetica" font-size="72" font-weight="normal">
                    <tspan x="101" y="126">9</tspan>
                </text>
            </g>
            <g id="Tisch-5" transform="translate(0.000000, 527.000000)">
                <rect id="Tisch-4" stroke="#000000" fill="#243648" transform="translate(40.926678, 120.806155) rotate(90.000000) translate(-40.926678, -120.806155) " x="-14.0733217" y="80.8061546" width="110" height="80" rx="6"></rect>
                <rect id="Rectangle-path" stroke="#000000" fill="#26AA8C" x="12.5039233" y="195.101123" width="50" height="50" rx="25"></rect>
                <rect id="Rectangle-path" stroke="#000000" fill="#26AA8C" x="9.73586572" y="1.07198153e-13" width="50" height="50" rx="25"></rect>
                <text id="5" fill="#A6B2C5" font-family="Helvetica" font-size="72" font-weight="normal">
                    <tspan x="17.5078968" y="146.55673">5</tspan>
                </text>
            </g>
            <g id="Tisch-3" transform="translate(0.235866, 200.000000)">
                <rect stroke="#000000" fill="#243648" transform="translate(40.926678, 119.652251) rotate(90.000000) translate(-40.926678, -119.652251) " x="-14.0733217" y="79.6522511" width="110" height="80" rx="6"></rect>
                <text id="3" fill="#A6B2C5" font-family="Helvetica" font-size="72" font-weight="normal">
                    <tspan x="14" y="148">3</tspan>
                </text>
                <rect id="Rectangle-path" stroke="#000000" fill="#26AA8C" x="8.50392328" y="0.894498116" width="50" height="50" rx="25"></rect>
                <rect id="Rectangle-path" stroke="#000000" fill="#26AA8C" x="8.50392328" y="196.449364" width="50" height="50" rx="25"></rect>
            </g>
            <g id="Tisch-4" transform="translate(157.000000, 278.000000)">
                <rect id="Tisch-3" stroke="#000000" fill="#243648" x="0" y="59" width="110" height="80" rx="6"></rect>
                <text id="4" fill="#A6B2C5" font-family="Helvetica" font-size="72" font-weight="normal">
                    <tspan x="31" y="127">4</tspan>
                </text>
                <rect id="Rectangle-path" stroke="#000000" fill="#26AA8C" x="28.1641674" y="0.894498116" width="50" height="50" rx="25"></rect>
                <rect id="Rectangle-path-Copy-4" stroke="#000000" fill="#26AA8C" x="116" y="80" width="50" height="50" rx="25"></rect>
                <rect id="Rectangle-path" stroke="#000000" fill="#26AA8C" x="28" y="156" width="50" height="50" rx="25"></rect>
            </g>
            <g id="Tisch-7" transform="translate(49.000000, 824.000000)">
                <rect stroke="#000000" fill="#243648" x="62" y="56" width="110" height="80" rx="6"></rect>
                <text id="7" fill="#A6B2C5" font-family="Helvetica" font-size="72" font-weight="normal">
                    <tspan x="96" y="116">8</tspan>
                </text>
                <rect id="Rectangle-path" stroke="#000000" fill="#26AA8C" x="0.0733215548" y="72" width="50" height="50" rx="25"></rect>
                <rect id="Rectangle-path-Copy-5" stroke="#000000" fill="#26AA8C" x="179.37027" y="73" width="50" height="50" rx="25"></rect>
                <rect id="Rectangle-path-Copy-3" stroke="#000000" fill="#26AA8C" x="95" y="0" width="50" height="50" rx="25"></rect>
            </g>
            <g id="Tisch-6" transform="translate(486.000000, 321.000000)">
                <rect id="Tisch-5" stroke="#000000" fill="#243648" x="62" y="62" width="110" height="80" rx="6"></rect>
                <text id="7" fill="#A6B2C5" opacity="0.699999988" font-family="Helvetica" font-size="72" font-weight="normal">
                    <tspan x="96" y="122">7</tspan>
                </text>
                <rect id="Rectangle-path" stroke="#000000" fill="#26AA8C" x="0.0733215548" y="78" width="50" height="50" rx="25"></rect>
                <rect id="Rectangle-path" stroke="#000000" fill="#26AA8C" x="91" y="0" width="50" height="50" rx="25"></rect>
                <rect id="Rectangle-path-Copy-5" stroke="#000000" fill="#26AA8C" x="179.37027" y="79" width="50" height="50" rx="25"></rect>
                <rect id="Rectangle-path-Copy-3" stroke="#000000" fill="#26AA8C" x="95" y="156" width="50" height="50" rx="25"></rect>
            </g>
            <g id="Tisch-6-Copy" transform="translate(256.000000, 491.000000)">
                <rect id="Tisch-6" stroke="#000000" fill="#243648" x="56.8566696" y="61.7962998" width="110" height="80" rx="6"></rect>
                <text id="6" fill="#A6B2C5" font-family="Helvetica" font-size="72" font-weight="normal">
                    <tspan x="95.0991382" y="122.479878">6</tspan>
                </text>
                <rect id="Rectangle-path" stroke="#000000" fill="#26AA8C" x="86" y="0" width="50" height="50" rx="25"></rect>
                <rect id="Rectangle-path-Copy-5" stroke="#000000" fill="#26AA8C" x="174.37027" y="78" width="50" height="50" rx="25"></rect>
                <rect id="Rectangle-path-Copy-3" stroke="#000000" fill="#26AA8C" x="90" y="156" width="50" height="50" rx="25"></rect>
                <rect id="Rectangle-path-Copy-6" stroke="#000000" fill="#26AA8C" x="0.856669573" y="74" width="50" height="50" rx="25"></rect>
            </g>
            <g id="Tisch-2" transform="translate(736.000000, 0.000000)">
                <rect stroke="#000000" fill="#243648" x="61" y="58" width="349.357716" height="146.726711" rx="6"></rect>
                <rect id="Rectangle-path" stroke="#000000" fill="#26AA8C" x="0.801220575" y="105.270999" width="50" height="50" rx="25"></rect>
                <rect id="Rectangle-path" stroke="#000000" fill="#26AA8C" x="93.320837" y="212.379746" width="50" height="50" rx="25"></rect>
                <rect id="Rectangle-path" stroke="#000000" fill="#26AA8C" x="207.473845" y="212.379746" width="50" height="50" rx="25"></rect>
                <rect id="Rectangle-path" stroke="#000000" fill="#26AA8C" x="327.422493" y="212.379746" width="50" height="50" rx="25"></rect>
                <rect id="Rectangle-path" stroke="#000000" fill="#26AA8C" x="418.325981" y="105.270999" width="50" height="50" rx="25"></rect>
                <rect id="Rectangle-path" stroke="#000000" fill="#26AA8C" x="93.320837" y="0" width="50" height="50" rx="25"></rect>
                <rect id="Rectangle-path" stroke="#000000" fill="#26AA8C" x="207.473845" y="0" width="50" height="50" rx="25"></rect>
                <rect id="Rectangle-path" stroke="#000000" fill="#26AA8C" x="327.422493" y="0" width="50" height="50" rx="25"></rect>
                <text id="2" fill="#A6B2C5" font-family="Helvetica" font-size="72" font-weight="normal">
                    <tspan x="215" y="158">2</tspan>
                </text>
            </g>
            <g id="Tisch-1" transform="translate(219.000000, 1.000000)">
                <rect stroke="#000000" fill="#243648" x="61" y="58" width="325.572973" height="146.726711" rx="6"></rect>
                <rect id="Rectangle-path" stroke="#000000" fill="#26AA8C" x="0.382476024" y="104.270999" width="50" height="50" rx="25"></rect>
                <rect id="Rectangle-path" stroke="#000000" fill="#26AA8C" x="95.5230166" y="213.899049" width="50" height="50" rx="25"></rect>
                <rect id="Rectangle-path" stroke="#000000" fill="#26AA8C" x="189.426417" y="213.899049" width="50" height="50" rx="25"></rect>
                <rect id="Rectangle-path" stroke="#000000" fill="#26AA8C" x="293" y="214" width="50" height="50" rx="25"></rect>
                <rect id="Rectangle-path" stroke="#000000" fill="#26AA8C" x="90.6384481" y="0" width="50" height="50" rx="25"></rect>
                <rect id="Rectangle-path" stroke="#000000" fill="#26AA8C" x="194.426417" y="0" width="50" height="50" rx="25"></rect>
                <rect id="Rectangle-path" stroke="#000000" fill="#26AA8C" x="298.008457" y="0" width="50" height="50" rx="25"></rect>
                <rect id="Rectangle-path" stroke="#000000" fill="#26AA8C" x="397.139669" y="104.270999" width="50" height="50" rx="25"></rect>
                <text id="1" fill="#A6B2C5" font-family="Helvetica" font-size="72" font-weight="normal">
                    <tspan x="203" y="153">1</tspan>
                </text>
            </g>
            <rect id="Rectangle-path" stroke="#000000" fill="#534741" x="117.107847" y="211" width="21.9313862" height="552.853109"></rect>
        </g>
    </g>
</svg>